<svg width="114" height="114" viewBox="0 0 114 114" fill="none" xmlns="http://www.w3.org/2000/svg">
<path d="M46.83 60.3995C46.83 60.3995 43.9052 62.1015 48.9149 62.6768C54.9837 63.3698 58.0857 63.27 64.7725 62.0062C64.7725 62.0062 66.5351 63.1079 68.9896 64.0627C53.9951 70.4867 35.0533 63.6904 46.83 60.3995ZM44.9962 52.0143C44.9962 52.0143 41.7151 54.4448 46.7285 54.9631C53.2122 55.632 58.3306 55.6872 67.1941 53.9808C67.1941 53.9808 68.417 55.2241 70.3434 55.9019C52.2174 61.2046 32.0278 56.3196 44.9962 52.0143Z" fill="#0074BD"/>
<path d="M60.4423 37.7901C64.1393 42.0455 59.4733 45.8717 59.4733 45.8717C59.4733 45.8717 68.8542 41.0293 64.5463 34.9633C60.5215 29.3087 57.4373 26.5006 74.1392 16.8141C74.1401 16.8141 47.921 23.3602 60.4423 37.7901Z" fill="#EA2D2E"/>
<path d="M80.2738 66.6018C80.2738 66.6018 82.4398 68.3875 77.8887 69.768C69.2354 72.3891 41.8683 73.18 34.2668 69.8722C31.5361 68.6832 36.6599 67.0338 38.271 66.6873C39.9516 66.3231 40.9117 66.3899 40.9117 66.3899C37.8729 64.2497 21.269 70.5927 32.4784 72.4123C63.0482 77.3668 88.2021 70.1804 80.2738 66.6018ZM48.238 43.3262C48.238 43.3262 34.3184 46.6331 43.3093 47.8355C47.1069 48.3431 54.6719 48.2264 61.7239 47.6351C67.4853 47.1515 73.2673 46.1174 73.2673 46.1174C73.2673 46.1174 71.2375 46.9885 69.7671 47.9913C55.6293 51.7097 28.3236 49.9774 36.1852 46.1762C42.8319 42.9602 48.238 43.3262 48.238 43.3262ZM73.2094 57.2823C87.5796 49.8171 80.9346 42.6422 76.2972 43.6086C75.1634 43.8455 74.654 44.0503 74.654 44.0503C74.654 44.0503 75.077 43.3877 75.8812 43.1036C85.0565 39.8795 92.1111 52.6163 72.9226 57.6608C72.9226 57.6608 73.1426 57.4613 73.2094 57.2823Z" fill="#0074BD"/>
<path d="M64.5472 1.16939C64.5472 1.16939 72.5049 9.13069 56.9982 21.3705C44.5633 31.1915 54.1625 36.7899 56.9929 43.1891C49.7343 36.6394 44.4101 30.8735 47.9815 25.5084C53.2264 17.6335 67.757 13.8136 64.5472 1.16939Z" fill="#EA2D2E"/>
<path d="M49.6515 77.5191C63.4419 78.4008 84.6254 77.0284 85.1268 70.5028C85.1268 70.5028 84.1632 72.976 73.7277 74.939C61.9554 77.1548 47.4338 76.8975 38.8232 75.476C38.8232 75.476 40.5867 76.9366 49.6515 77.5191Z" fill="#0074BD"/>
<path d="M84.4901 89.2237H84.0697V88.9886H85.2008V89.2237H84.7822V90.3967H84.4892L84.4901 89.2237ZM86.7478 89.2825H86.7425L86.3257 90.3967H86.1333L85.7191 89.2825H85.7147V90.3967H85.4368V88.9886H85.8438L86.2277 89.9852L86.6124 88.9886H87.0168V90.3967H86.7478V89.2825ZM47.3911 102.455C46.0908 103.582 44.7157 104.216 43.4804 104.216C41.7223 104.216 40.7684 103.16 40.7684 101.469C40.7684 99.6387 41.7891 98.2983 45.8788 98.2983H47.3902V102.455H47.3911ZM50.9812 106.505V93.9681C50.9812 90.7627 49.1527 88.6484 44.7495 88.6484C42.1792 88.6484 39.9259 89.2843 38.0939 90.093L38.6211 92.3133C40.0639 91.7834 41.9298 91.2917 43.7609 91.2917C46.2992 91.2917 47.3902 92.3133 47.3902 94.4276V96.012H46.122C39.9579 96.012 37.1765 98.4034 37.1765 102C37.1765 105.098 39.0094 106.859 42.4606 106.859C44.6782 106.859 46.3357 105.943 47.8827 104.603L48.1642 106.506H50.9812V106.505ZM62.9619 106.505H58.4847L53.0955 88.9699H57.0063L60.3515 99.7456L61.0951 102.983C62.7838 98.3001 63.9808 93.5459 64.5793 88.9708H68.3831C67.3651 94.7429 65.5305 101.081 62.9619 106.505ZM80.1403 102.455C78.8355 103.582 77.4595 104.216 76.2286 104.216C74.4688 104.216 73.5158 103.16 73.5158 101.469C73.5158 99.6387 74.5391 98.2983 78.6244 98.2983H80.1394V102.455H80.1403ZM83.7322 106.505V93.9681C83.7322 90.7627 81.8984 88.6484 77.4987 88.6484C74.9257 88.6484 72.6733 89.2843 70.8413 90.093L71.3694 92.3133C72.8122 91.7834 74.6807 91.2917 76.5119 91.2917C79.0466 91.2917 80.1403 92.3133 80.1403 94.4276V96.012H78.872C72.7062 96.012 69.9257 98.4034 69.9257 102C69.9257 105.098 71.7568 106.859 75.2071 106.859C77.4256 106.859 79.0804 105.943 80.6319 104.603L80.9151 106.506H83.7322V106.505ZM33.24 109.485C32.2184 110.981 30.5636 112.164 28.7539 112.832L26.9824 110.743C28.3602 110.036 29.5403 108.895 30.0898 107.832C30.5636 106.885 30.7605 105.667 30.7605 102.754V82.731H34.5759V102.479C34.5759 106.375 34.266 107.951 33.24 109.485Z" fill="#EA2D2E"/>
</svg>
