<svg width="143" height="144" viewBox="0 0 143 144" fill="none" xmlns="http://www.w3.org/2000/svg">
<path d="M2.23549 101.765H6.8249V83.5144L13.9302 99.4252C14.7681 101.351 15.9155 102.032 18.1666 102.032C20.4177 102.032 21.5215 101.351 22.3594 99.4252L29.4647 83.5144V101.765H34.0541V83.5447C34.0541 81.7672 33.348 80.9066 31.8912 80.4634C28.4045 79.3676 26.0651 80.316 25.006 82.6864L18.0336 98.3891L11.2825 82.6852C10.267 80.316 7.88399 79.3676 4.39725 80.4622C2.94044 80.9066 2.23438 81.7661 2.23438 83.5436V101.765H2.23549ZM37.8715 86.9085H42.4598V96.9637C42.4174 97.5094 42.6341 98.7919 45.1478 98.8324C46.4303 98.8526 55.0483 98.8324 55.1287 98.8324V86.859H59.7282C59.7494 86.859 59.7237 103.187 59.7237 103.255C59.7483 107.282 54.7623 108.156 52.4631 108.224H37.971V105.114C37.9955 105.114 52.4531 105.118 52.4888 105.113C55.4438 104.799 55.0941 103.321 55.093 102.824V101.611H45.3388C40.8008 101.569 37.9095 99.5749 37.8727 97.2799C37.8704 97.0695 37.9721 87.0097 37.8715 86.9085Z" fill="#00618A"/>
<path d="M63.2664 101.765H76.4626C78.0076 101.765 79.5091 101.44 80.7001 100.878C82.6853 99.9596 83.6561 98.7154 83.6561 97.0841V93.7069C83.6561 92.3738 82.5535 91.1284 80.3906 90.3004C79.2433 89.8549 77.83 89.6198 76.4615 89.6198H70.9001C69.0467 89.6198 68.1641 89.0573 67.944 87.813C67.9005 87.6645 67.9004 87.5464 67.9004 87.3979V85.2941C67.9004 85.176 67.9005 85.0568 67.944 84.9094C68.1641 83.961 68.6501 83.6944 70.2834 83.5459L70.7247 83.5166H83.8327V80.4364H70.9459C69.0925 80.4364 68.1217 80.5545 67.2391 80.8211C64.5031 81.6806 63.3099 83.043 63.3099 85.4134V88.1089C63.3099 90.1834 65.6504 91.9609 69.5773 92.376C70.0198 92.4041 70.4599 92.4356 70.9012 92.4356H75.6683C75.8448 92.4356 76.0213 92.4356 76.1542 92.4638C77.611 92.5819 78.2277 92.8496 78.6701 93.3818C78.9349 93.6484 79.0221 93.9161 79.0221 94.2109V96.9075C79.0221 97.2326 78.802 97.6478 78.3607 98.0033C77.9641 98.3588 77.3016 98.5961 76.419 98.6558L75.933 98.685H63.2664V101.765ZM112.29 96.4035C112.29 99.5726 114.629 101.35 119.35 101.707C119.792 101.736 120.233 101.765 120.674 101.765H132.635V98.685H120.587C117.895 98.685 116.88 98.0033 116.88 96.3731V80.4341H112.291V96.4035H112.29ZM86.5854 96.5633V85.5776C86.5854 82.7876 88.5316 81.0945 92.3791 80.5601C92.7769 80.5005 93.2204 80.4713 93.617 80.4713H102.33C102.772 80.4713 103.17 80.5005 103.611 80.5601C107.459 81.0945 109.406 82.7865 109.406 85.5776V96.5633C109.406 98.829 108.579 100.04 106.675 100.829L111.197 104.939H105.867L102.209 101.613L98.527 101.849H93.617C92.7769 101.849 91.8932 101.73 90.9201 101.463C88.0009 100.662 86.5854 99.117 86.5854 96.5633ZM91.539 96.2966C91.539 96.4451 91.5826 96.5948 91.6273 96.7725C91.892 98.0494 93.0874 98.7615 94.8995 98.7615H99.0689L95.2391 95.2796H100.569L103.909 98.3171C104.525 97.9853 104.93 97.4813 105.072 96.8321C105.115 96.6836 105.115 96.5351 105.115 96.3866V85.8476C105.115 85.7295 105.115 85.5799 105.072 85.4314C104.806 84.2434 103.611 83.5616 101.843 83.5616H94.8984C92.8651 83.5616 91.5379 84.4526 91.5379 85.8476V96.2966H91.539Z" fill="#E48E00"/>
<path d="M136.672 75.321C133.851 75.2434 131.696 75.5077 129.853 76.2896C129.329 76.5124 128.494 76.518 128.41 77.1784C128.697 77.4832 128.741 77.9366 128.97 78.3101C129.411 79.0267 130.153 79.9875 130.816 80.4904C131.539 81.0405 132.285 81.63 133.063 82.107C134.442 82.9552 135.984 83.439 137.315 84.2872C138.098 84.789 138.875 85.419 139.641 85.9849C140.019 86.2627 140.272 86.6981 140.765 86.8725V86.7926C140.506 86.4619 140.439 86.0074 140.203 85.6609L139.159 84.6101C138.139 83.2466 136.845 82.0507 135.468 81.0562C134.371 80.2631 131.915 79.191 131.457 77.9051L131.377 77.8252C132.154 77.7364 133.066 77.4529 133.783 77.2594C134.99 76.9331 136.068 77.0175 137.314 76.6935L138.998 76.2075V75.8857C138.369 75.2355 137.919 74.3737 137.233 73.7854C135.438 72.2452 133.476 70.7062 131.457 69.4215C130.338 68.7105 128.954 68.2481 127.766 67.6451C127.368 67.4415 126.667 67.3369 126.402 66.9982C125.777 66.1984 125.439 65.1847 124.957 64.2521C123.952 62.3002 122.962 60.1672 122.069 58.1119C121.462 56.7112 121.064 55.3297 120.305 54.0731C116.662 48.042 112.741 44.4015 106.667 40.824C105.374 40.0624 103.818 39.7631 102.175 39.3705L99.5269 39.2085C98.9895 38.9824 98.4287 38.3186 97.9226 37.9969C95.9094 36.7166 90.748 33.9322 89.2577 37.5941C88.317 39.9049 90.6653 42.1594 91.5043 43.3305C92.0931 44.1517 92.8483 45.072 93.2695 45.9956C93.5466 46.6031 93.5935 47.2117 93.8314 47.8541C94.4135 49.4359 94.9218 51.1582 95.6759 52.6196C96.0569 53.3599 96.4781 54.1395 96.9596 54.801C97.2545 55.206 97.7617 55.386 97.841 56.0126C97.3461 56.7101 97.3171 57.7946 97.0389 58.6777C95.7854 62.6591 96.258 67.608 98.0823 70.5544C98.6421 71.46 99.9603 73.3995 101.772 72.6547C103.358 72.0045 103.005 69.9896 103.458 68.211C103.561 67.8094 103.497 67.5124 103.698 67.2424V67.3234L105.143 70.2315C106.212 71.9651 108.108 73.7752 109.716 74.9981C110.549 75.6315 111.206 76.7284 112.283 77.0985V77.0164H112.204C111.994 76.689 111.668 76.554 111.4 76.2896C110.772 75.6697 110.074 74.9002 109.556 74.1892C108.093 72.1912 106.802 70.0031 105.624 67.7261C105.063 66.6394 104.574 65.4401 104.101 64.3331C103.917 63.9067 103.92 63.261 103.54 63.0416C103.019 63.8516 102.256 64.5075 101.854 65.4649C101.213 66.9949 101.13 68.8612 100.892 70.7962L100.731 70.8761C99.6129 70.605 99.2208 69.4462 98.8052 68.4529C97.755 65.9407 97.5595 61.8941 98.4845 59.0017C98.7236 58.2525 99.8039 55.8956 99.366 55.2037C99.1571 54.5141 98.4678 54.1159 98.0835 53.5871C97.6064 52.9357 97.1294 52.0785 96.7998 51.3247C95.9396 49.3661 95.5385 47.1667 94.6347 45.1856C94.2012 44.2384 93.4706 43.281 92.8695 42.4395C92.2048 41.5057 91.4597 40.8195 90.9435 39.6922C90.7603 39.2917 90.5112 38.6494 90.7826 38.2376C90.8687 37.9597 90.9927 37.8439 91.2653 37.7527C91.73 37.3916 93.026 37.8731 93.5108 38.0756C94.7978 38.6145 95.8714 39.1264 96.9618 39.8531C97.4847 40.203 98.0131 40.878 98.6465 41.0647H99.3682C100.498 41.3257 101.763 41.1446 102.818 41.4675C104.684 42.039 106.355 42.9266 107.872 43.8919C112.496 46.8326 116.276 51.0176 118.863 56.0104C119.279 56.8147 119.46 57.5809 119.825 58.4336C120.565 60.1526 121.496 61.9222 122.231 63.6041C122.965 65.2815 123.682 66.9746 124.719 68.3707C125.265 69.1042 127.372 69.498 128.329 69.9052C129.001 70.191 130.1 70.4891 130.736 70.8739C131.95 71.6119 133.127 72.4905 134.266 73.2982C134.834 73.7055 136.585 74.5909 136.672 75.321ZM100.812 44.5421C100.224 44.5309 99.8073 44.6074 99.3671 44.7041V44.784H99.4476C99.728 45.3656 100.223 45.7391 100.57 46.2386L101.374 47.9351L101.453 47.8552C101.95 47.5031 102.177 46.9395 102.175 46.0777C101.975 45.8662 101.946 45.6019 101.774 45.351C101.546 45.0135 101.101 44.8245 100.812 44.5421Z" fill="#00618A"/>
</svg>
