<svg width="79" height="95" viewBox="0 0 79 95" fill="none" xmlns="http://www.w3.org/2000/svg">
<path d="M39.5 60.9133C45.0321 66.2937 50.4883 69.4766 54.8836 69.4766C56.3235 69.4766 57.6875 69.1734 58.8242 68.4914C62.7649 66.218 64.2047 60.5344 62.8406 52.4258C62.6133 50.9859 62.3102 49.5461 61.9313 48.0305C63.4469 47.5758 64.811 47.1211 66.175 46.6664C73.8289 43.7109 78.0727 39.6187 78.0727 35.1477C78.0727 30.6008 73.8289 26.5086 66.175 23.6289C64.811 23.0984 63.4469 22.6437 61.9313 22.2648C62.3102 20.7492 62.6133 19.3094 62.8406 17.8695C64.1289 9.60937 62.6891 3.84999 58.7485 1.57656C57.6117 0.894525 56.2477 0.5914 54.8078 0.5914C50.4883 0.5914 44.9563 3.77421 39.4242 9.15468C33.968 3.77421 28.5117 0.5914 24.1164 0.5914C22.6766 0.5914 21.3125 0.894525 20.1758 1.57656C16.2352 3.84999 14.7953 9.53359 16.1594 17.6422C16.3867 19.082 16.6899 20.5219 17.0688 22.0375C15.5531 22.4922 14.1891 22.9469 12.825 23.4016C5.17112 26.357 0.927368 30.4492 0.927368 34.9203C0.927368 39.4672 5.17112 43.5594 12.825 46.4391C14.1891 46.9695 15.5531 47.4242 17.0688 47.8031C16.6899 49.3187 16.3867 50.7586 16.1594 52.1984C14.8711 60.307 16.311 66.0664 20.1758 68.2641C21.3125 68.9461 22.6766 69.2492 24.1164 69.2492C28.5117 69.4008 33.968 66.218 39.5 60.9133ZM35.2563 50.6828C36.6203 50.7586 38.0602 50.7586 39.5 50.7586C40.9399 50.7586 42.3797 50.7586 43.7438 50.6828C42.3797 52.5016 40.9399 54.1687 39.5 55.7602C38.0602 54.1687 36.6203 52.5016 35.2563 50.6828ZM25.8594 42.8773C26.6172 44.1656 27.2992 45.3781 28.1328 46.5906C25.7836 46.2875 23.586 45.9086 21.4641 45.4539C22.1461 43.4078 22.9039 41.2859 23.8133 39.1641C24.4196 40.3766 25.1016 41.6648 25.8594 42.8773ZM21.4641 24.6141C23.586 24.1594 25.7836 23.7805 28.1328 23.4773C27.375 24.6898 26.6172 25.9023 25.8594 27.1906C25.1016 28.4789 24.4196 29.6914 23.8133 30.9797C22.8281 28.782 22.0703 26.6601 21.4641 24.6141ZM25.6321 34.9961C26.6172 32.95 27.6781 30.9039 28.8906 28.8578C30.0274 26.8875 31.3156 24.9172 32.6039 22.9469C34.8774 22.7953 37.1508 22.7195 39.5 22.7195C41.925 22.7195 44.1985 22.7953 46.3961 22.9469C47.7602 24.9172 48.9727 26.8875 50.1094 28.8578C51.3219 30.9039 52.3828 32.95 53.368 34.9961C52.3828 37.0422 51.3219 39.0883 50.1094 41.1344C48.9727 43.1047 47.6844 45.075 46.3961 47.0453C44.1227 47.1969 41.8492 47.2727 39.5 47.2727C37.075 47.2727 34.8016 47.1969 32.6039 47.0453C31.2399 45.075 30.0274 43.1047 28.8906 41.1344C27.6781 39.0883 26.6172 37.0422 25.6321 34.9961ZM55.2625 30.9039L53.2164 27.1148C52.4586 25.8266 51.7766 24.6141 50.943 23.4016C53.2922 23.7047 55.4899 24.0836 57.6117 24.5383C56.9297 26.6602 56.1719 28.782 55.2625 30.9039ZM55.2625 39.0883C56.1719 41.2102 56.9297 43.332 57.6117 45.3781C55.4899 45.8328 53.2922 46.2117 50.943 46.5148C51.7008 45.3023 52.4586 44.0898 53.2164 42.8016C53.8985 41.6648 54.5805 40.3766 55.2625 39.0883ZM57.0055 65.3844C56.3992 65.7633 55.6414 65.9148 54.8078 65.9148C51.0946 65.9148 46.4719 62.8836 41.925 58.3367C44.1227 55.9875 46.2446 53.3352 48.3664 50.3797C51.9281 50.0766 55.3383 49.5461 58.5211 48.7883C58.9 50.1523 59.1274 51.5164 59.3547 52.8805C60.4156 59.3219 59.5821 63.9445 57.0055 65.3844ZM60.9461 25.4477C69.4336 27.8727 74.511 31.5859 74.511 34.9961C74.511 37.9516 71.025 40.907 64.8867 43.2562C63.6742 43.7109 62.3102 44.1656 60.9461 44.5445C59.961 41.4375 58.7485 38.2547 57.2328 34.9961C58.7485 31.7375 60.0367 28.5547 60.9461 25.4477ZM54.8836 4.07734C55.7172 4.07734 56.3992 4.2289 57.0813 4.60781C59.5821 6.04765 60.4914 10.5945 59.4305 17.1117C59.2031 18.4 58.9 19.7641 58.5969 21.2039C55.4141 20.5219 52.0039 19.9914 48.4422 19.6125C46.3961 16.657 44.1985 14.0047 42.0008 11.6555C46.5477 7.18437 51.1703 4.07734 54.8836 4.07734ZM43.7438 19.3094C42.3797 19.2336 40.9399 19.2336 39.5 19.2336C38.0602 19.2336 36.6203 19.2336 35.2563 19.3094C36.6203 17.4906 38.0602 15.8234 39.5 14.232C40.9399 15.8234 42.3797 17.5664 43.7438 19.3094ZM21.9946 4.60781C22.6008 4.2289 23.3586 4.07734 24.1922 4.07734C27.9055 4.07734 32.5281 7.10859 37.075 11.6555C34.8774 14.0047 32.7555 16.657 30.6336 19.6125C27.0719 19.9156 23.6617 20.4461 20.4789 21.2039C20.1 19.8398 19.8727 18.4758 19.6453 17.1117C18.5844 10.6703 19.418 6.12343 21.9946 4.60781ZM18.0539 44.5445C9.56643 42.1195 4.48909 38.4062 4.48909 34.9961C4.48909 32.0406 7.97502 29.0851 14.1133 26.7359C15.3258 26.2812 16.6899 25.8266 18.0539 25.4477C19.0391 28.5547 20.2516 31.7375 21.7672 34.9961C20.2516 38.2547 18.9633 41.5133 18.0539 44.5445ZM19.6453 52.8805C19.8727 51.5922 20.1758 50.2281 20.4789 48.7883C23.6617 49.4703 27.0719 50.0008 30.6336 50.3797C32.6797 53.3352 34.8774 55.9875 37.075 58.3367C32.5281 62.8078 27.9055 65.9148 24.1922 65.9148C23.3586 65.9148 22.6766 65.7633 21.9946 65.3844C19.418 63.9445 18.5844 59.3219 19.6453 52.8805ZM16.4625 84.1023C18.1297 82.0562 18.2055 79.7828 17.2961 77.5094C16.3867 75.2359 14.4922 74.175 12.143 74.0992C9.33909 74.0234 6.4594 74.0992 3.65549 74.0992H3.12502V93.7266H5.39846V86.3H8.96018C9.41487 86.3 9.79377 86.4516 10.0211 86.8305L14.568 93.8781C14.6438 94.0297 14.8711 94.257 15.0227 94.257H17.9781C16.1594 91.4531 14.4164 88.8008 12.5977 86.0727C14.1891 85.8453 15.5531 85.3148 16.4625 84.1023ZM5.39846 83.9508V76.4484H6.23206C7.97502 76.4484 9.79377 76.3727 11.5367 76.5242C13.5828 76.6 15.0227 78.1914 15.0227 80.2375C15.0227 82.2836 13.3555 83.875 11.3094 83.9508C9.49065 84.0266 7.6719 83.9508 5.39846 83.9508ZM34.7258 84.9359C33.5133 79.6312 28.6633 78.2672 24.95 79.9344C22.0703 81.2227 20.7821 83.7234 20.7063 86.8305C20.6305 89.1797 21.3125 91.3016 23.1313 92.893C25.1774 94.7117 27.6781 94.9391 30.2547 94.4844C31.6946 94.1812 32.9828 93.4992 33.968 92.4383C33.5891 91.9078 33.2102 91.3773 32.8313 90.9227C30.7094 92.7414 28.3602 93.3477 25.7836 92.1352C24.1164 91.3016 23.2828 89.2555 23.1313 87.7398H34.8774V86.7547C34.9531 86.0727 34.8774 85.4664 34.7258 84.9359ZM23.2828 86.1484C23.0555 83.875 25.3289 81.45 27.8297 81.45C30.7094 81.3742 32.5281 83.1172 32.6039 86.1484H23.2828ZM46.5477 79.5555C45.411 79.3281 44.1985 79.2523 43.0617 79.3281C41.243 79.4797 39.6516 80.3133 38.3633 81.6773C38.7422 82.2078 39.0453 82.7383 39.5 83.3445C39.6516 83.193 39.8031 83.0414 39.9547 82.9656C41.1672 81.8289 42.6071 81.2226 44.35 81.3742C45.7141 81.45 47.0024 81.9047 47.3813 83.2687C47.6844 84.3297 47.6086 85.4664 47.6844 86.6031C47.4571 86.6031 47.3813 86.5273 47.3055 86.4516C45.4867 84.9359 43.4407 84.6328 41.243 85.1633C39.1969 85.6937 37.9086 87.2851 37.7571 89.3312C37.6055 91.6805 38.6664 93.4234 40.7125 94.257C42.0008 94.7875 43.4406 94.7875 44.8047 94.4844C45.8656 94.257 46.3203 93.6508 47.836 92.8172V93.8023H49.9578C49.9578 90.7711 50.0336 87.0578 49.9578 83.5719C49.9578 81.3742 48.6696 80.0102 46.5477 79.5555ZM47.6086 89.1039C47.5328 89.3312 47.6086 89.5586 47.6086 89.7859C47.6086 91.3773 47.2297 91.9078 45.7141 92.5141C44.6531 92.893 43.5164 93.0445 42.3797 92.6656C41.0914 92.2867 40.1821 91.15 40.1821 89.8617C40.1063 88.5734 40.9399 87.2851 42.2281 86.9062C43.9711 86.3 45.5625 86.6789 47.0024 87.7398C47.4571 88.1187 47.7602 88.4977 47.6086 89.1039ZM59.4305 81.6016C61.4008 80.9953 63.2196 81.3742 64.5836 83.0414L64.811 83.193C65.3414 82.7383 65.7961 82.2836 66.4024 81.7531C66.175 81.5258 66.0992 81.3742 65.9477 81.1469C63.75 78.7977 59.4305 78.4945 56.7781 80.3891C53.0649 83.1172 53.1406 88.4219 54.9594 91.2258C56.7024 93.8781 59.2031 94.7875 62.1586 94.4086C63.9016 94.1812 65.3414 93.3476 66.4781 91.9078C65.9477 91.4531 65.4172 90.9984 64.8867 90.468C64.7352 90.6195 64.6594 90.6953 64.5836 90.8469C62.5375 93.1203 59.1274 92.893 57.3086 90.468C56.2477 89.0281 56.0203 87.3609 56.3235 85.6937C56.475 83.7992 57.4602 82.2836 59.4305 81.6016ZM75.193 91.9078C75.0414 91.9836 74.9656 92.0594 74.9656 92.0594C74.3594 92.5141 73.7532 92.5898 73.0711 92.3625C72.3891 92.0594 72.3133 91.4531 72.2375 90.8469V82.2078C72.2375 82.0562 72.2375 82.3594 72.3133 81.6016H75.193V79.3281H72.1617V75.5391H69.8883V79.6312H67.918C67.7664 79.6312 67.5391 79.7828 67.5391 79.9344C67.4633 80.4648 67.5391 80.8437 67.5391 81.6016H69.9641V91.3016C69.9641 92.5141 70.2672 93.575 71.3281 94.1812C72.4649 94.8633 74.6625 94.7117 75.6477 93.8781C75.7992 93.8023 75.875 93.4992 75.875 93.4234C75.6477 92.9687 75.4203 92.4383 75.193 91.9078Z" fill="#61DAFB"/>
</svg>
