<svg width="88" height="88" viewBox="0 0 88 88" fill="none" xmlns="http://www.w3.org/2000/svg">
<path d="M33.3793 45.5172H36.4138C38.2344 45.5172 39.4482 47.0344 39.4482 48.5517H42.4827C42.4827 45.2139 39.7518 42.4827 36.4138 42.4827H33.3793C30.0413 42.4827 27.3103 45.2139 27.3103 48.5517C27.3103 51.8896 30.0413 54.6207 33.3793 54.6207H36.4138C38.2344 54.6207 39.4482 55.8345 39.4482 57.6552C39.4482 59.4758 38.2344 60.6896 36.4138 60.6896H33.3793C31.5586 60.6896 30.3448 59.1725 30.3448 57.6552H27.3103C27.3103 60.993 30.0413 63.7241 33.3793 63.7241H36.4138C39.7518 63.7241 42.4827 60.993 42.4827 57.6552C42.4827 54.3173 39.7518 51.5862 36.4138 51.5862H33.3793C31.5586 51.5862 30.3448 50.3724 30.3448 48.5517C30.3448 46.731 31.5586 45.5172 33.3793 45.5172Z" fill="black"/>
<path d="M78.8966 33.3793H57.6552V24.2758L39.4483 3.03447H6.06897C2.73096 3.03447 0 5.76542 0 9.10343V78.8965C0 82.2344 2.73096 84.9655 6.06897 84.9655H51.5862C54.9241 84.9655 57.6552 82.2344 57.6552 78.8965V72.8276H78.8966C84.0553 72.8276 88 68.8828 88 63.7241V42.4827C88 37.324 84.0553 33.3793 78.8966 33.3793ZM39.4483 7.58611L53.7104 24.2758H42.4828C40.9656 24.2758 39.4483 22.7587 39.4483 21.2414V7.58611ZM54.6207 78.8965C54.6207 80.4137 53.4069 81.931 51.5862 81.931H6.06897C4.5518 81.931 3.03448 80.7172 3.03448 78.8965V9.10343C3.03448 7.58627 4.24828 6.06895 6.06897 6.06895H36.4138V21.2414C36.4138 24.5794 39.1447 27.3103 42.4828 27.3103H54.6207V33.3793H27.3103C22.1516 33.3793 18.2069 37.324 18.2069 42.4827V63.7241C18.2069 68.8828 22.1516 72.8276 27.3103 72.8276H54.6207V78.8965ZM84.9655 63.7241C84.9655 67.062 82.2344 69.7931 78.8966 69.7931H27.3103C23.9723 69.7931 21.2414 67.062 21.2414 63.7241V42.4827C21.2414 39.1447 23.9723 36.4138 27.3103 36.4138H78.8966C82.2344 36.4138 84.9655 39.1447 84.9655 42.4827V63.7241Z" fill="black"/>
<path d="M60.6895 57.6552V48.5517C60.6895 45.2139 57.9584 42.4827 54.6205 42.4827H51.5861C48.2482 42.4827 45.5171 45.2139 45.5171 48.5517V57.6552C45.5171 60.993 48.2482 63.7241 51.5861 63.7241H54.6205C55.2274 63.7241 56.1377 63.7241 56.7448 63.4208L59.4757 66.1517L61.5999 64.0275L59.1723 61.5999C60.0826 60.6896 60.6895 59.1725 60.6895 57.6552ZM57.655 57.6552C57.655 58.2621 57.3516 58.869 57.0481 59.4758L52.8 55.2277L50.6758 57.3519L54.0136 60.6898H51.5861C49.7654 60.6898 48.5516 59.476 48.5516 57.6553V48.5517C48.5516 46.731 49.7654 45.5172 51.5861 45.5172H54.6205C56.4412 45.5172 57.655 46.731 57.655 48.5517V57.6552Z" fill="black"/>
<path d="M66.7586 42.4827H63.7241V63.7241H78.8965V60.6896H66.7586V42.4827Z" fill="black"/>
</svg>
