<svg width="84" height="84" viewBox="0 0 84 84" fill="none" xmlns="http://www.w3.org/2000/svg">
<path d="M82.9042 22.3519C82.9036 20.626 82.7299 18.9046 82.3857 17.2134C82.0413 15.4822 81.4559 13.8078 80.6467 12.2391C79.8009 10.7196 78.7497 9.32399 77.5229 8.09156C76.2576 6.85348 74.7878 5.84331 73.1785 5.10563C71.5904 4.30481 69.8917 3.74522 68.1385 3.44531C66.3995 3.11063 64.4898 3.11063 62.7507 2.94656H19.8517C18.5135 2.96835 17.1783 3.08017 15.8551 3.28125C14.542 3.43583 13.2567 3.77152 12.0357 4.27875C11.6879 4.44281 11.1695 4.61344 10.8217 4.7775C9.6665 5.39671 8.56846 6.11702 7.54041 6.93C7.1926 7.26469 6.84478 7.42875 6.49697 7.75688C5.21798 8.94317 4.16025 10.3476 3.37322 11.9044C2.51375 13.451 1.92556 15.1335 1.63416 16.8787C1.37555 18.5818 1.20252 20.2968 1.11572 22.0172V61.6481C1.11626 63.374 1.28994 65.0954 1.63416 66.7866C1.97855 68.5178 2.56393 70.1922 3.37322 71.7609C4.21899 73.2804 5.27013 74.676 6.49697 75.9084C7.76232 77.1465 9.23206 78.1567 10.8413 78.8944C12.4295 79.6952 14.1282 80.2548 15.8813 80.5547C17.6204 80.8894 19.5301 80.8894 21.2692 81.0534H62.7573C64.5647 81.0521 66.3682 80.8852 68.1451 80.5547C69.8983 80.2548 71.5969 79.6952 73.1851 78.8944C74.76 78.0974 76.2211 77.0932 77.5295 75.9084C78.8085 74.7221 79.8662 73.3178 80.6532 71.7609C81.5127 70.2143 82.1009 68.5318 82.3923 66.7866C82.6509 65.0835 82.8239 63.3685 82.9107 61.6481V22.3519H82.9042Z" fill="#F05138"/>
<path d="M55.7813 63.3281C48.4903 67.3509 38.4694 67.7644 28.3828 63.6366C20.5185 60.4456 13.7943 54.9652 9.08252 47.9063C11.2722 49.5825 13.6645 50.976 16.2028 52.0538C26.6175 56.7131 37.0256 56.3916 44.356 52.0538C33.9216 44.4019 25.0622 34.4531 18.4603 26.3288C17.1575 24.9557 15.9946 23.4565 14.9888 21.8531C22.9688 28.8159 35.6606 37.6031 40.1756 40.0903C33.7291 33.4851 27.8051 26.3894 22.4569 18.8672C31.3472 27.5066 41.1299 35.1775 51.6403 41.7506C52.1063 42 52.4672 42.21 52.756 42.4069C53.0641 41.6547 53.3292 40.8857 53.55 40.1034C55.9847 31.6444 53.2022 22.0303 47.1253 14.07C61.1953 22.1878 69.5625 37.4391 66.0582 50.2097C65.9663 50.5575 65.8678 50.8659 65.7628 51.2269L65.8875 51.3713C72.8372 59.6597 70.9275 68.4338 70.0547 66.7931C66.2813 59.7188 59.3053 61.9041 55.7813 63.3281Z" fill="#FEFEFE"/>
</svg>
