<svg width="21" height="19" viewBox="0 0 21 19" fill="none" xmlns="http://www.w3.org/2000/svg">
<path d="M20.6034 0.261194C20.2452 -0.0409064 19.6826 -0.0841315 19.1009 0.148144H19.0999C18.4881 0.392295 1.78095 7.51922 1.10082 7.81039C0.977117 7.85314 -0.103257 8.25404 0.00802824 9.14705C0.107373 9.95217 0.975685 10.2856 1.08172 10.3241L5.32918 11.7705C5.61098 12.7034 6.6498 16.1452 6.87953 16.8805C7.02282 17.3389 7.25638 17.9412 7.6657 18.0652C8.02487 18.2029 8.38212 18.0771 8.61329 17.8966L11.2101 15.5011L15.4022 18.7525L15.502 18.8119C15.7867 18.9373 16.0594 19 16.3197 19C16.5208 19 16.7137 18.9625 16.8981 18.8874C17.5261 18.6309 17.7774 18.0357 17.8036 17.9683L20.9349 1.78167C21.126 0.917171 20.8604 0.47732 20.6034 0.261194ZM9.07515 12.349L7.64229 16.149L6.20943 11.399L17.1947 3.324L9.07515 12.349Z" fill="black"/>
</svg>
