<svg width="97" height="98" viewBox="0 0 97 98" fill="none" xmlns="http://www.w3.org/2000/svg">
<g clip-path="url(#clip0)">
<path d="M24.3947 74.9953C24.1153 74.9953 23.8371 75.0761 23.5954 75.2375C23.3538 75.3989 23.1322 75.6772 23.1322 76.0345C23.1322 76.0815 23.1048 76.187 23.1958 76.371L23.1721 76.3127L28.0299 92.2354C28.1168 92.5341 28.3255 92.7623 28.5597 92.8933C28.7939 93.0243 29.0516 93.0743 29.3013 93.0743C29.8321 93.0743 30.4149 92.8183 30.5934 92.2413V92.2398L35.4467 76.2574V76.1991C35.4467 76.2797 35.4703 76.2331 35.4703 76.0585C35.4703 75.6951 35.2406 75.4279 34.9952 75.26C34.7498 75.092 34.4609 74.9953 34.1604 74.9953C33.7898 74.9953 33.3635 75.223 33.2206 75.6562L33.2176 75.6607L29.2998 88.8708L25.3672 75.6845C25.3088 75.4489 25.1518 75.2515 24.969 75.1417C24.7862 75.0319 24.5869 74.9951 24.3947 74.9951L24.3947 74.9953ZM63.0848 75.8162C62.3115 75.8162 61.6594 76.4147 61.6594 77.1636C61.6594 77.9124 62.3014 78.5318 63.0848 78.5318C63.8534 78.5318 64.4643 77.9008 64.4643 77.1636C64.4643 76.4263 63.8428 75.8162 63.0848 75.8162ZM51.6957 80.9139C49.0521 80.9139 46.875 83.0512 46.875 85.6198V88.2517C46.875 89.6903 47.4424 90.9234 48.4054 91.7748C49.3684 92.6261 50.7126 93.0967 52.2536 93.0967C53.3919 93.0967 54.3196 92.8392 54.983 92.4896C55.3146 92.3147 55.5811 92.1186 55.7778 91.9049C55.9744 91.6911 56.1197 91.4572 56.1197 91.1647C56.1197 90.8961 56.0173 90.6634 55.8518 90.4544C55.6862 90.2454 55.4255 90.0536 55.0895 90.0536C54.8468 90.0536 54.6605 90.1568 54.4989 90.257C54.3374 90.3572 54.1857 90.4678 54.0031 90.574C53.6379 90.7864 53.154 90.9927 52.2995 90.9927C51.3482 90.9927 50.5548 90.7186 50.0083 90.2585C49.4618 89.7984 49.144 89.1596 49.144 88.322V87.8345H54.0209C54.541 87.8345 55.1193 87.8353 55.6194 87.513C56.1195 87.1904 56.4231 86.5492 56.4231 85.5735C56.4231 82.8715 54.1915 80.914 51.6956 80.914L51.6957 80.9139ZM70.0241 80.9139C68.619 80.9139 67.5856 81.3733 66.9218 82.0639C66.2579 82.7545 65.9715 83.6529 65.9715 84.4924C65.9715 85.5623 66.3994 86.329 67.012 86.8206C67.6247 87.3122 68.387 87.5596 69.1123 87.7806C69.8376 88.0017 70.5318 88.1978 70.998 88.488C71.4641 88.7781 71.7143 89.0919 71.7143 89.7545C71.7143 90.1102 71.6085 90.3933 71.3221 90.6248C71.0357 90.8563 70.5272 91.039 69.6984 91.039C68.718 91.039 68.1701 90.7947 67.7713 90.5456C67.5719 90.421 67.4113 90.2917 67.2459 90.1762C67.0805 90.0607 66.8929 89.9355 66.6301 89.9355C66.3138 89.9355 66.0806 90.1323 65.9389 90.3362C65.7972 90.5401 65.7154 90.7717 65.7154 91.0226C65.7154 91.3328 65.8649 91.6055 66.0766 91.842C66.2883 92.0786 66.5748 92.2891 66.9262 92.4731C67.6289 92.841 68.5965 93.0966 69.7458 93.0966C70.9935 93.0966 72.0196 92.7889 72.7459 92.192C73.4722 91.595 73.8679 90.7075 73.8679 89.6842C73.8679 88.5285 73.452 87.6974 72.8392 87.1481C72.2264 86.5989 71.4527 86.3157 70.7167 86.0879C69.9808 85.86 69.2726 85.6827 68.7986 85.4329C68.3245 85.1831 68.1014 84.9528 68.1014 84.422C68.1014 84.135 68.2151 83.7739 68.504 83.489C68.7929 83.204 69.2643 82.9731 70.0478 82.9731C70.6738 82.9731 71.1391 83.1183 71.5116 83.2722C71.6978 83.3491 71.8597 83.4294 72.0133 83.4965C72.1669 83.5634 72.3086 83.6295 72.5121 83.6295C72.8797 83.6295 73.1316 83.3846 73.2817 83.157C73.4319 82.9295 73.5186 82.705 73.5186 82.4482C73.5186 82.1265 73.3204 81.8985 73.1012 81.7274C72.8819 81.5564 72.6071 81.4206 72.2886 81.3028C71.6516 81.067 70.8392 80.914 70.024 80.914L70.0241 80.9139ZM36.7887 81.056C36.1741 81.056 35.6431 81.4453 35.6431 82.025V88.298C35.6431 90.8428 37.7846 93.0967 40.4402 93.0967C43.051 93.0967 45.2372 90.8693 45.2372 88.298V82.0026C45.2372 81.7125 45.0792 81.4608 44.8716 81.3013C44.664 81.1417 44.4002 81.056 44.1138 81.056C43.8273 81.056 43.5621 81.1406 43.3501 81.2968C43.138 81.453 42.9682 81.7027 42.9682 82.0026V88.298C42.9682 89.632 41.8176 90.9224 40.4402 90.9224C39.0399 90.9224 37.9122 89.609 37.9122 88.298V82.025C37.9122 81.7245 37.7498 81.4928 37.5481 81.3281C37.3465 81.1634 37.0831 81.056 36.7888 81.056L36.7887 81.056ZM63.0856 81.056C62.7982 81.056 62.532 81.1307 62.3203 81.2922C62.1087 81.4538 61.9636 81.7196 61.9636 82.0025V93.5604C61.9636 94.4277 61.9035 95.1552 61.715 95.5956C61.5265 96.036 61.3041 96.2311 60.6685 96.2311C60.107 96.2311 59.6383 96.7268 59.6383 97.3198C59.6383 97.5662 59.717 97.8368 59.9166 98.048C60.1162 98.2592 60.426 98.383 60.7839 98.383C61.9921 98.383 62.9165 97.8417 63.4673 96.9623C64.0182 96.083 64.2326 94.9067 64.2326 93.5604V82.0025C64.2326 81.7013 64.0623 81.4393 63.8463 81.2847C63.6303 81.1301 63.3649 81.0559 63.0855 81.0559L63.0856 81.056ZM51.6722 82.9491C53.1812 82.9491 54.2001 84.2255 54.2001 85.5256C54.2001 85.6673 54.1851 85.76 54.1705 85.8023C54.156 85.8444 54.1574 85.839 54.1365 85.8531C54.0947 85.8813 53.8618 85.9413 53.4157 85.9413H49.1441V85.4314C49.1441 84.0707 50.2691 82.9491 51.6721 82.9491L51.6722 82.9491ZM58.8802 90.1239C58.056 90.1239 57.4312 90.813 57.4312 91.6103C57.4312 92.3761 58.0466 93.0742 58.8802 93.0742C59.6699 93.0742 60.3056 92.3974 60.3056 91.6103C60.3056 90.7933 59.6594 90.1239 58.8802 90.1239Z" fill="#35495E"/>
<path d="M23.7981 0.301331L38.749 0.307043L48.5222 16.6966L58.2609 0.308357L73.1988 0.304351L48.5969 43.419L23.7981 0.301331Z" fill="#35495E"/>
<path d="M7.49243 0.41671L23.7849 0.304352L48.5824 43.4209L73.1856 0.306978L89.5067 0.324249L48.5798 71.2855L7.49243 0.41671Z" fill="#41B883"/>
</g>
<defs>
<clipPath id="clip0">
<rect width="97" height="98" fill="white"/>
</clipPath>
</defs>
</svg>
