<svg width="21" height="20" viewBox="0 0 21 20" fill="none" xmlns="http://www.w3.org/2000/svg">
<path d="M17.9317 2.928C15.9513 1.041 13.3178 0.001 10.5121 0C4.73048 0 0.0252013 4.479 0.0231012 9.985C0.0220512 11.745 0.505075 13.463 1.42282 14.977L0 20L5.49492 18.763C7.02695 19.559 8.75113 19.978 10.5068 19.979H10.511C16.2916 19.979 20.9968 15.499 21 9.994C21.0021 7.325 19.9121 4.816 17.9317 2.928ZM15.6437 13.554C15.4253 14.137 14.3553 14.699 13.8743 14.74C13.3934 14.782 12.9429 14.947 10.7294 14.116C8.06545 13.116 6.38327 10.515 6.25306 10.349C6.1218 10.182 5.18306 8.996 5.18306 7.768C5.18306 6.54 5.86034 5.936 6.1008 5.687C6.34127 5.437 6.62478 5.375 6.80014 5.375C6.97445 5.375 7.14981 5.375 7.30206 5.381C7.48897 5.388 7.69583 5.397 7.89219 5.812C8.1253 6.306 8.63458 7.54 8.69968 7.665C8.76479 7.79 8.80889 7.936 8.72173 8.102C8.63458 8.268 8.59048 8.372 8.46027 8.518C8.32901 8.664 8.18516 8.843 8.06755 8.955C7.93629 9.079 7.79979 9.215 7.95205 9.464C8.10535 9.714 8.63038 10.531 9.40952 11.192C10.4113 12.042 11.2545 12.305 11.517 12.431C11.7795 12.556 11.9317 12.535 12.0851 12.368C12.2384 12.202 12.7403 11.64 12.9146 11.39C13.0889 11.14 13.2643 11.182 13.5047 11.265C13.7452 11.348 15.0336 11.952 15.2951 12.077C15.5576 12.202 15.7319 12.264 15.797 12.368C15.8621 12.471 15.8621 12.971 15.6437 13.554Z" fill="black"/>
</svg>
