<svg width="79" height="70" viewBox="0 0 79 70" fill="none" xmlns="http://www.w3.org/2000/svg">
<path d="M39.5 35L39.6062 34.65L48.6375 17.85L49.2395 17.5H54.8708L55.4375 17.85V18.55L46.5833 35L55.4375 51.45V52.15L54.8708 52.5H49.2395L48.6375 52.15L39.6062 35.35L39.5 35V35.35L30.3625 52.15L29.7604 52.5H24.1291L23.5625 52.15V51.45L32.4166 35L23.5625 18.55V17.85L24.1291 17.5H29.7604L30.3625 17.85L39.5 34.65V35ZM77.5729 31.745C78.1395 32.725 78.4583 33.845 78.4583 35C78.4583 36.155 78.1395 37.275 77.5729 38.255L61.0333 66.5C59.7583 68.67 57.4208 70 54.9062 70H24.0937C21.5791 70 19.2416 68.67 17.9666 66.5L1.42704 38.255C0.860376 37.275 0.541626 36.155 0.541626 35C0.541626 33.845 0.860376 32.725 1.42704 31.745L17.9666 3.5C19.2416 1.33 21.5791 0 24.0937 0H54.9062C57.4208 0 59.7583 1.33 61.0333 3.5L77.5729 31.745ZM70.6666 32.375L57.102 9.8C56.075 8.05 54.1625 7 52.1083 7H26.8916C24.8375 7 22.925 8.05 21.8979 9.8L8.33329 32.375C7.87288 33.25 7.62496 34.09 7.62496 35C7.62496 35.91 7.87288 36.75 8.33329 37.625L21.8979 60.2C22.925 61.95 24.8375 63 26.8916 63H52.1083C54.1625 63 56.075 61.95 57.102 60.2L70.6666 37.625C71.127 36.75 71.375 35.91 71.375 35C71.375 34.09 71.127 33.25 70.6666 32.375Z" fill="black"/>
</svg>
